<svg width="12" height="6" viewBox="0 0 12 6" fill="none" xmlns="http://www.w3.org/2000/svg">
<path fill-rule="evenodd" clip-rule="evenodd" d="M10.1919 5.80474C10.4522 6.06509 10.8743 6.06509 11.1347 5.80474C11.395 5.54439 11.395 5.12228 11.1347 4.86193L6.47435 0.201585C6.47229 0.199467 6.47021 0.197359 6.46811 0.195261C6.33741 0.0645676 6.16596 -0.000518797 5.99466 1.90921e-06C5.8247 0.000498297 5.65489 0.0655851 5.52522 0.195262C5.52313 0.197347 5.52106 0.199443 5.51901 0.201549L0.858633 4.86193C0.598283 5.12228 0.598283 5.54439 0.858633 5.80474C1.11898 6.06509 1.54109 6.06509 1.80144 5.80474L5.99666 1.60952L10.1919 5.80474Z" fill="#FCFCFC"/>
</svg>
